<svg xmlns="http://www.w3.org/2000/svg" width="959.625" height="305" viewBox="0 0 959.625 305"><g transform="translate(-1245 -3055.382)"><path d="M97.98,7.852a10.648,10.648,0,1,1,15.135,14.983L36.371,99.578H289.616a10.66,10.66,0,0,1,10.748,10.6,10.79,10.79,0,0,1-10.748,10.748H36.371l76.744,76.6a10.865,10.865,0,0,1,0,15.135,10.6,10.6,0,0,1-15.135,0L3.068,117.746a10.679,10.679,0,0,1,0-14.983Z" transform="translate(1245.001 3098.391)" fill="#fff"/><text transform="translate(1664.625 3294.382)" fill="#fff" font-size="224" font-family="OpenSans-Bold, Open Sans" font-weight="700"><tspan x="0" y="0">Back</tspan></text></g></svg>